# xmcd CD database file
#
# Track frame offsets:
#	150
#	13411
#	26686
#	44369
#	68421
#	82989
#	95186
#	131524
#	159381
#	181492
#	202860
#	220516
#	238244
#
# Disc length: 3511 seconds
#
# Revision: 2
# Processed by: cddbd v1.5.2PL0 Copyright (c) Steve Scherf et al.
# Submitted via: CDex 1.51
#
DISCID=ab0db50d
DTITLE=Stevie Ray Vaughan And Double Trouble - Guitar Boogie (Bootleg)
DYEAR=1993
DGENRE=Texas Blues
TTITLE0=Love Struck Baby
TTITLE1=Tell Me
TTITLE2=Rocking Daddy
TTITLE3=The Sky Is Crying
TTITLE4=Guitar Boogie
TTITLE5=Dust My Blues
TTITLE6=Tin Pan Alley
TTITLE7=All Your Love
TTITLE8=I'm Leaving You
TTITLE9=Little Wing
TTITLE10=I'm Crying
TTITLE11=Tore Down
TTITLE12=Stevie's Blues
EXTD=YEAR: 1993
EXTT0=
EXTT1=
EXTT2=
EXTT3=
EXTT4=
EXTT5=
EXTT6=
EXTT7=
EXTT8=
EXTT9=
EXTT10=
EXTT11=
EXTT12=
PLAYORDER=
